<svg width="283" height="304" viewBox="0 0 283 304" fill="none" xmlns="http://www.w3.org/2000/svg">
<path d="M239 256L230.5 163L218.441 142.5C218.441 142.5 214 184 213 186.5C212 189 206.382 122 206.382 122L195.5 103.5L174.75 86.0371C174.75 86.0371 178 135 174.75 126.5C171.5 118 154 68.5743 154 68.5743L145 61L122 52.0798C122 52.0798 132.5 98.5 129 92.5C125.5 86.5 106 45.8745 106 45.8745L6 6L27.8743 66L44.9534 95C44.9534 95 83.5209 113.5 87.5 116.5C91.4791 119.5 54.5235 111.25 54.5235 111.25L81.1728 156.5C81.1728 156.5 130 175 135 177C140 179 91.4791 174 91.4791 174L102.374 192.5L140 222.374C140 222.374 186 232.479 190 233.49C194 234.5 154 233.49 154 233.49L185.5 258.5L239 256Z" stroke="black" stroke-width="6"/>
<path d="M244.419 256.286L12 12C133.437 154.286 163.193 208.714 279 300L244.419 256.286Z" fill="black" stroke="black" stroke-width="8" stroke-linejoin="round"/>
</svg>
