<svg width="429" height="166" viewBox="0 0 429 166" fill="none" xmlns="http://www.w3.org/2000/svg">
<path d="M294.5 6L158 32.5L109 51.5L216 32.5L294.5 6Z" fill="black"/>
<path d="M114.5 163.5L4 149L31.5 119.5L50 113.5V81.3924L92.5 58.5L186.5 44.5L308.5 36L204.5 70L139 108L252.5 102C252.5 102 413 59 415.5 58.5C415.17 58.8302 348.541 85.331 303.329 103.29C309.602 102.098 403.587 84.233 417.737 81.3755C418.805 81.1302 419.413 81 419.5 81C419.399 81.0335 418.789 81.163 417.737 81.3755C400.44 85.3476 262.5 119.5 262.5 119.5L114.5 163.5Z" fill="black"/>
<path d="M262.5 119.5C262.5 119.5 418 81 419.5 81C418 81.5 303 103.353 303 103.353L262.5 119.5ZM262.5 119.5L114.5 163.5L4 149L31.5 119.5L50 113.5V81.3924L92.5 58.5L186.5 44.5L308.5 36L204.5 70L139 108L252.5 102C252.5 102 413 59 415.5 58.5C415 59 262.5 119.5 262.5 119.5ZM158 32.5L294.5 6L216 32.5L109 51.5L158 32.5Z" stroke="black" stroke-width="3" stroke-miterlimit="16"/>
</svg>
