<svg width="74" height="45" viewBox="0 0 74 45" fill="none" xmlns="http://www.w3.org/2000/svg">
<path fill-rule="evenodd" clip-rule="evenodd" d="M0.999939 38.8125C0.999939 36.3272 3.2908 36 5.49994 36H68.4999C70.7091 36 73.4999 36.3272 73.4999 38.8125C73.4999 41.2978 70.7091 45 68.4999 45H5.49994C3.2908 45 0.999939 41.2978 0.999939 38.8125Z" fill="black"/>
<path fill-rule="evenodd" clip-rule="evenodd" d="M0.999939 20.8125C0.999939 18.3272 3.2908 18 5.49994 18H68.4999C70.7091 18 73.4999 18.3272 73.4999 20.8125C73.4999 23.2978 70.7091 27 68.4999 27H5.49994C3.2908 27 0.999939 23.2978 0.999939 20.8125Z" fill="black"/>
<path fill-rule="evenodd" clip-rule="evenodd" d="M0.5 2.8125C0.5 0.327219 2.79086 0 5 0L68 0C70.2091 0 73 0.327219 73 2.8125C73 5.29778 70.2091 9 68 9H5C2.79086 9 0.5 5.29778 0.5 2.8125Z" fill="black"/>
</svg>
