<svg width="197" height="284" viewBox="0 0 197 284" fill="none" xmlns="http://www.w3.org/2000/svg">
<path d="M83.0637 130.313L89.3202 128.76L83.2836 126.499C79.6963 125.155 68.0926 118.794 58.125 109.268C48.1051 99.6919 40.3199 87.4898 42.9881 74.3917C47.2695 53.3741 63.9076 36.9362 80.7589 24.9814C89.1463 19.0311 97.4964 14.2543 104.222 10.6261C106.531 9.38093 108.633 8.27891 110.488 7.30607C111.343 6.85763 112.146 6.43664 112.893 6.04174C115.189 4.82739 117.062 3.80528 118.107 3.03913C118.203 2.96917 118.295 2.90347 118.383 2.84183C117.483 5.50315 115.153 9.66004 112.282 13.3128C109.917 16.3216 108.56 19.1751 108.185 21.9586C107.806 24.7798 108.461 27.3314 109.77 29.654C111.056 31.9368 112.975 34.0069 115.155 35.9593C117.34 37.9152 119.89 39.8424 122.501 41.7968L122.806 42.0254C133.374 49.9357 144.882 58.5503 144.882 73.9925C144.882 80.6505 142.509 87.2671 138.966 93.5313C135.427 99.7895 130.789 105.576 126.415 110.552C124.469 112.767 122.588 114.806 120.881 116.655C120.672 116.882 120.466 117.106 120.262 117.327C118.413 119.333 116.768 121.133 115.563 122.63C114.96 123.38 114.43 124.099 114.029 124.765C113.652 125.391 113.273 126.156 113.175 126.964C113.123 127.397 113.142 127.915 113.35 128.443C113.566 128.99 113.936 129.42 114.379 129.724C115.084 130.207 115.924 130.342 116.644 130.367C126.443 132.995 134.105 135.128 140.13 137.186C146.216 139.265 150.488 141.222 153.543 143.433C156.538 145.601 158.39 148.033 159.602 151.175C160.838 154.381 161.437 158.4 161.756 163.805V188.022H27.5669V166.99C30.4765 158.917 34.5065 152.306 42.4913 146.476C50.6714 140.503 63.1205 135.262 83.0637 130.313ZM119.937 1.99086C119.937 1.99162 119.926 1.99425 119.907 1.99651C119.928 1.99124 119.938 1.99011 119.937 1.99086ZM118.753 1.13816C118.75 1.12103 118.749 1.11132 118.749 1.11075C118.75 1.11017 118.751 1.11874 118.753 1.13816Z" fill="white" stroke="black" stroke-width="4"/>
<path d="M102.875 63.6918C108.992 67.7721 113.037 67.6725 121.236 63.6918" stroke="black" stroke-width="3"/>
<path d="M64.2212 59.8303C70.3379 63.9106 74.3829 63.811 82.582 59.8303" stroke="black" stroke-width="3"/>
<path d="M68.0866 82.9826C81.9492 78.1127 87.4601 76.5074 96.042 77.2071L96.111 87.8261C89.0196 88.225 83.7072 87.0697 68.0866 82.9826Z" fill="black" stroke="black" stroke-width="0.3"/>
<path d="M98.5 283C55.5082 283 4.07087 253.856 1 161.824C1 148.517 2.49351 135.015 5.45613 121.943L27.1024 151.087L40.1536 102.77L48.5984 165.659L64.7205 132.68L81.6103 156.455L116.158 121.943L121.532 141.117L129.976 132.68L142.26 161.824L164.524 121.943L177.575 132.68L191.544 121.943C194.507 135.015 196 148.517 196 161.824C192.929 253.856 141.492 283 98.5 283Z" fill="black" stroke="black"/>
</svg>
