<svg width="274" height="208" viewBox="0 0 274 208" fill="none" xmlns="http://www.w3.org/2000/svg">
<path d="M121 141C104.167 149.167 73.5 166 69 168.5H118L133.5 156V176.5L162.5 204L157.5 153.5L121 141Z" fill="black" stroke="black" stroke-width="3" stroke-miterlimit="16"/>
<path d="M202 68L129 134.5L163.5 145.5L209 132L238 111L243 63L267.5 49H250L232 43L215.5 47L202 68Z" fill="black" stroke="black" stroke-width="3" stroke-miterlimit="16"/>
<path d="M190 67L8 5L54.5 41.5L133.5 76C133.5 76 111 70.3087 97.5 67C82.5 63.3236 62.5 55 62.5 55L97.5 84.5L123 101.5L100 98L120.5 129L190 67Z" fill="black"/>
<path d="M8 5L8.48369 3.58013L0.141202 0.738179L7.07383 6.17992L8 5ZM190 67L190.999 68.1193L192.916 66.4087L190.484 65.5801L190 67ZM120.5 129L119.249 129.827L120.205 131.273L121.499 130.119L120.5 129ZM100 98L100.226 96.5171L96.8848 96.0087L98.7488 98.8274L100 98ZM123 101.5L122.774 102.983L129.453 103.999L123.832 100.252L123 101.5ZM97.5 84.5L96.5333 85.6469L96.5978 85.7013L96.6679 85.7481L97.5 84.5ZM62.5 55L63.0764 53.6151L54.0944 49.877L61.5333 56.1469L62.5 55ZM133.5 76L133.132 77.4542L150.827 81.93L134.1 74.6254L133.5 76ZM54.5 41.5L53.5738 42.6799C53.6738 42.7584 53.7833 42.8238 53.8997 42.8746L54.5 41.5ZM97.5 67L97.8571 65.5431L97.8571 65.5431L97.5 67ZM7.51631 6.41987L189.516 68.4199L190.484 65.5801L8.48369 3.58013L7.51631 6.41987ZM189.001 65.8807L119.501 127.881L121.499 130.119L190.999 68.1193L189.001 65.8807ZM121.751 128.173L101.251 97.1726L98.7488 98.8274L119.249 129.827L121.751 128.173ZM99.7743 99.4829L122.774 102.983L123.226 100.017L100.226 96.5171L99.7743 99.4829ZM123.832 100.252L98.3321 83.2519L96.6679 85.7481L122.168 102.748L123.832 100.252ZM98.4667 83.3531L63.4667 53.8531L61.5333 56.1469L96.5333 85.6469L98.4667 83.3531ZM134.1 74.6254L55.1003 40.1254L53.8997 42.8746L132.9 77.3746L134.1 74.6254ZM55.4262 40.3201L8.92617 3.82008L7.07383 6.17992L53.5738 42.6799L55.4262 40.3201ZM62.5 55C61.9236 56.3849 61.9238 56.3849 61.924 56.385C61.9242 56.3851 61.9245 56.3852 61.9249 56.3854C61.9256 56.3857 61.9266 56.3861 61.9279 56.3866C61.9305 56.3877 61.9344 56.3893 61.9394 56.3914C61.9495 56.3956 61.9643 56.4017 61.9839 56.4098C62.023 56.426 62.0809 56.45 62.1569 56.4813C62.3087 56.5438 62.5327 56.6358 62.8226 56.7539C63.4025 56.9902 64.2465 57.3314 65.3057 57.7521C67.4238 58.5933 70.404 59.7531 73.8551 61.0284C80.7451 63.5744 89.5588 66.5981 97.1429 68.4569L97.8571 65.5431C90.4412 63.7256 81.7549 60.7492 74.8949 58.2144C71.471 56.9491 68.5137 55.7983 66.4131 54.9639C65.3629 54.5468 64.5272 54.209 63.9547 53.9757C63.6685 53.8591 63.4481 53.7686 63.2997 53.7075C63.2255 53.6769 63.1692 53.6537 63.1318 53.6381C63.113 53.6304 63.099 53.6245 63.0897 53.6207C63.0851 53.6188 63.0816 53.6173 63.0794 53.6164C63.0783 53.616 63.0775 53.6156 63.077 53.6154C63.0767 53.6153 63.0766 53.6152 63.0764 53.6152C63.0764 53.6151 63.0764 53.6151 62.5 55ZM97.1429 68.4569C103.889 70.1102 112.885 72.3593 120.197 74.1956C123.853 75.1136 127.087 75.9283 129.407 76.5135C130.567 76.8061 131.498 77.0413 132.139 77.2033C132.46 77.2843 132.708 77.3471 132.876 77.3895C132.96 77.4108 133.024 77.4269 133.067 77.4378C133.089 77.4432 133.105 77.4473 133.116 77.4501C133.121 77.4514 133.125 77.4525 133.128 77.4532C133.129 77.4535 133.13 77.4538 133.131 77.4539C133.131 77.454 133.132 77.4541 133.132 77.4541C133.132 77.4542 133.132 77.4542 133.5 76C133.868 74.5458 133.868 74.5458 133.868 74.5457C133.867 74.5457 133.867 74.5456 133.867 74.5455C133.866 74.5454 133.865 74.5451 133.864 74.5448C133.861 74.5441 133.857 74.543 133.851 74.5416C133.841 74.5389 133.824 74.5348 133.803 74.5293C133.76 74.5185 133.696 74.5023 133.612 74.481C133.443 74.4385 133.195 74.3757 132.874 74.2947C132.232 74.1326 131.301 73.8973 130.14 73.6046C127.82 73.0192 124.585 72.2043 120.928 71.2859C113.615 69.4494 104.611 67.1986 97.8571 65.5431L97.1429 68.4569Z" fill="black"/>
</svg>
