<svg width="307" height="268" viewBox="0 0 307 268" fill="none" xmlns="http://www.w3.org/2000/svg">
<ellipse cx="153.191" cy="134" rx="133.854" ry="134" fill="black"/>
<path d="M49.3049 97.1535C73.4017 85.7147 86.8087 83.2225 110.238 97.1535C134.034 81.3559 147.376 83.2382 171.172 97.1535" stroke="white" stroke-width="5" stroke-linecap="round"/>
<path d="M84 138.942C106.506 131.057 118.655 130.121 138.126 144.786C160.784 132.986 172.453 135.944 192.252 150.63" stroke="white" stroke-width="5" stroke-linecap="round"/>
<path d="M171.585 124.129C186.158 115.732 194.464 113.482 209.915 120.988C224.075 109.88 232.564 110.37 248.244 117.847" stroke="white" stroke-width="5" stroke-linecap="round"/>
<path d="M58.1252 156.77C32.7192 153.88 23.4826 158.746 6.85136 177.77C-6.02564 192.5 1.70052 213.076 36.5204 219.77C58.8456 226.194 96.8396 213.27 106.329 213.27C115.819 213.27 119.024 229.504 151.746 219.77C181.247 227.835 201.725 217.77 210.216 213.27C210.216 222.27 238.038 216.819 246.676 219.77C267.116 226.586 278.511 229.553 295.123 186.302C298.624 175.556 296.795 170.148 276.137 163.333C256.736 159.734 249.404 163.851 240.129 177.77C222.659 167.352 213.408 160.34 189.718 163.333C158.781 160.277 142.572 161.783 118.357 177.77C102.347 161.192 90.9611 154.584 58.1252 156.77Z" fill="#D1D1D1" stroke="#E5E5E5" stroke-width="0.5" stroke-linecap="round"/>
<path d="M263.078 243.386C283.333 245.69 311.239 243.386 305.879 226.646C308.096 208.257 308.063 198.503 280.303 193.167C262.504 188.046 232.213 198.348 224.647 198.348C217.081 198.348 214.526 185.407 188.438 193.167C164.917 186.738 148.591 194.761 141.822 198.348C141.822 191.174 119.64 195.519 112.754 193.167C96.4573 187.733 87.3727 185.369 74.1288 219.846C71.337 228.411 72.7955 232.722 89.2656 238.155C104.733 241.023 110.579 237.741 117.973 226.646C131.901 234.951 139.277 240.541 158.164 238.155C182.829 240.591 195.752 239.39 215.058 226.646C227.822 239.861 236.899 245.129 263.078 243.386Z" fill="#DDDCDC" stroke="#E5E5E5" stroke-width="0.5" stroke-linecap="round"/>
<path d="M206.062 203.943C226.317 201.64 245.013 202.294 247.231 220.683C249.448 239.072 251.047 248.827 223.286 254.163C205.487 259.283 175.196 248.981 167.63 248.981C160.065 248.981 157.509 261.922 131.421 254.163C107.901 260.592 91.575 252.568 84.8057 248.981C84.8057 256.156 62.624 251.81 55.7374 254.163C39.4409 259.596 30.3563 261.96 17.1124 227.484C14.3205 218.918 15.779 214.607 32.2492 209.175C47.7168 206.306 53.5621 209.588 60.957 220.683C74.8846 212.378 82.2603 206.789 101.148 209.175C125.813 206.739 138.735 207.939 158.041 220.683C170.806 207.468 179.883 202.201 206.062 203.943Z" fill="#F0F0F0" stroke="#E5E5E5" stroke-width="0.5" stroke-linecap="round"/>
</svg>
