<svg width="280" height="182" viewBox="0 0 280 182" fill="none" xmlns="http://www.w3.org/2000/svg">
<path d="M94.5 180.5C51 180.5 30.8064 169.967 4 134C23.3866 136.462 49.1472 141.19 61.5 130C72 140.5 83.5 151.5 104 151.5C130 151.5 150.049 135.752 151.5 110C151.5 88 129.5 82.5 97.5 93C117.847 55.2495 132.422 34.9228 164 36.5C179 36.5 199.564 50.9537 202.5 72L223.5 69L208 88L227.5 93L202.5 103.5C176.013 162.39 138 180.5 94.5 180.5Z" fill="black" stroke="black" stroke-width="3" stroke-miterlimit="16"/>
<path d="M34 90C52.038 110.262 76.0409 143.628 105.5 142.075C127.841 140.897 142.5 132.425 142.5 108.5C142.5 92.9248 125.5 93.5 100 100.5C61.5 109 54.8727 91.883 34 90Z" fill="black" stroke="black" stroke-width="3" stroke-miterlimit="16"/>
<path d="M166 62.5C172.304 71.3134 175.881 70.3158 181.5 62.5" stroke="white" stroke-width="3" stroke-miterlimit="16"/>
<path d="M220.067 3.73659L226.412 27.416C218.878 25.8601 212.205 35.1547 215.684 43.1589C218.467 49.5622 233.047 39.6722 230.651 31.2843L224.664 8.93902C227.575 7.10952 232.958 9.32001 238.838 18.0097L235.978 7.33727L220.067 3.73659Z" fill="black" stroke="black" stroke-width="2" stroke-miterlimit="16" stroke-linejoin="round"/>
<path d="M239.91 64.6028C241.009 56.6199 246.68 55.9995 250.03 58.6758L247.346 33.8301L274.774 27L277.871 55.6682L278.8 64.2686C279.523 70.9579 263.515 72.6871 263.529 60.4401C263.535 54.6389 271.565 52.8046 274.43 56.0399L272.194 35.3351L252.026 44.9256L253.987 63.0821C254.606 68.8158 249.251 71.9723 247.061 72.2089C247.061 72.2089 238.811 72.5858 239.91 64.6028Z" fill="black" stroke="black" stroke-width="2" stroke-miterlimit="16" stroke-linejoin="round"/>
</svg>
